<svg xmlns="http://www.w3.org/2000/svg" viewBox="0 0 64 64">
  <rect width="64" height="64" rx="14" fill="#fbfaf4"/>
  <path
    fill="#171411"
    d="M39 10a2 2 0 0 1 2 2v29.8c0 6.4-5.7 11.6-12.7 11.6-5.4 0-9.6-3.1-9.6-7.4 0-5.1 5.4-9.2 12.1-9.2 2.3 0 4.4.5 6.2 1.4V18.6l-1.1.3a2 2 0 1 1-.9-3.9l3.5-.8A2 2 0 0 1 39 10Z"
  />
  <path
    fill="#171411"
    d="M39 12.2c6.7 1.6 11.6 5 14.7 10.3.6 1 .3 2.2-.6 2.9l-2.8 2c-1 .7-2.4.3-3-.8-2-3.7-4.7-6.2-8.3-7.4v-7Z"
    opacity=".9"
  />
  <path
    fill="none"
    stroke="#7b2e2e"
    stroke-linecap="round"
    stroke-width="2"
    d="M36.8 18.6 50.9 15"
    opacity=".55"
  />
</svg>
